<?xml version="1.0" standalone="no"?>
<!DOCTYPE svg PUBLIC "-//W3C//DTD SVG 20010904//EN"
 "http://www.w3.org/TR/2001/REC-SVG-20010904/DTD/svg10.dtd">
<svg version="1.0" xmlns="http://www.w3.org/2000/svg"
 width="1088.000000pt" height="1088.000000pt" viewBox="0 0 1088.000000 1088.000000"
 preserveAspectRatio="xMidYMid meet">
<metadata>
Created by potrace 1.14, written by Peter Selinger 2001-2017
</metadata>
<g transform="translate(0.000000,1088.000000) scale(0.100000,-0.100000)"
fill="#000000" stroke="none">
<path d="M4449 6281 c-12 -21 -27 -30 -56 -34 -39 -7 -80 -37 -66 -50 11 -12
53 -8 76 7 21 14 75 20 147 17 26 -1 31 -4 22 -13 -25 -25 -13 -38 37 -38 28
0 53 -4 56 -10 3 -5 14 -10 24 -10 10 0 26 -9 36 -20 10 -11 23 -20 29 -20 6
0 34 -11 61 -25 28 -13 55 -25 62 -25 6 0 20 -11 31 -25 11 -14 29 -25 40 -25
32 0 72 -21 72 -38 0 -10 7 -12 23 -8 16 4 31 -1 48 -17 13 -12 28 -21 32 -19
14 4 97 -38 97 -49 0 -6 6 -9 13 -7 6 1 26 -6 44 -15 18 -9 41 -17 51 -17 11
0 31 -9 44 -20 14 -10 28 -17 31 -14 3 4 19 -3 35 -15 17 -12 37 -21 46 -21
22 0 66 -27 92 -57 12 -15 34 -25 55 -27 57 -5 84 -16 95 -39 5 -12 16 -21 23
-19 8 2 23 -6 35 -16 11 -11 41 -22 65 -26 24 -4 57 -18 74 -32 16 -14 36 -23
43 -20 8 3 14 -1 14 -9 0 -8 5 -15 10 -15 6 0 18 -8 28 -17 9 -10 35 -24 57
-32 22 -8 45 -20 50 -27 6 -7 36 -20 67 -28 31 -8 66 -20 78 -26 12 -6 28 -9
36 -6 8 3 44 -16 80 -42 36 -26 73 -51 82 -57 10 -5 36 -22 60 -37 23 -15 42
-23 42 -18 0 17 17 11 68 -20 27 -16 61 -30 76 -30 15 0 29 -6 32 -13 2 -7 25
-22 49 -32 25 -11 45 -23 45 -27 0 -5 11 -8 24 -8 24 0 51 -22 40 -33 -8 -8
22 -22 81 -37 28 -8 59 -23 71 -34 54 -55 85 -74 139 -82 65 -11 84 -21 123
-63 23 -25 42 -50 42 -55 0 -4 7 -3 15 4 20 17 38 2 31 -26 -5 -19 -2 -24 14
-24 11 0 20 -4 20 -10 0 -5 5 -10 10 -10 6 0 30 -18 52 -40 23 -22 51 -40 61
-40 11 0 38 -16 61 -36 69 -59 66 -58 66 -26 0 36 4 40 35 34 19 -3 23 -8 15
-17 -7 -9 -5 -19 10 -36 17 -21 21 -22 30 -9 8 13 10 13 10 -2 0 -10 6 -18 13
-18 7 0 20 -18 30 -40 9 -22 22 -40 28 -40 8 0 8 4 0 13 -8 10 -7 17 2 26 9
10 6 17 -15 35 -32 25 -36 46 -10 46 20 0 62 -35 62 -50 0 -6 6 -10 14 -10 7
0 17 -15 22 -32 8 -28 14 -32 35 -30 18 2 36 -7 59 -28 18 -16 43 -33 57 -36
14 -4 27 -13 30 -20 3 -8 16 -14 28 -14 13 0 27 -4 30 -10 3 -5 15 -10 26 -10
11 0 30 -11 43 -25 13 -14 29 -25 35 -25 24 0 58 -31 71 -65 7 -19 22 -37 32
-41 10 -3 18 -8 18 -12 0 -4 4 -13 9 -21 8 -12 11 -12 24 0 8 8 18 25 21 37 9
29 20 28 34 -3 6 -14 20 -25 30 -25 34 0 77 -47 77 -83 0 -28 4 -33 34 -42 22
-6 41 -22 54 -42 10 -18 24 -33 31 -33 6 0 22 -13 36 -30 14 -16 32 -30 40
-30 8 0 21 -9 28 -20 7 -11 21 -20 32 -20 11 0 20 -4 20 -10 0 -5 7 -10 16
-10 10 0 -2 17 -31 46 -28 26 -53 43 -61 40 -10 -4 -16 4 -21 24 -3 17 -10 33
-14 36 -12 7 -11 24 2 24 5 0 17 -16 25 -35 11 -26 20 -35 38 -35 14 0 26 -4
28 -9 2 -5 9 -11 17 -13 8 -2 23 -11 33 -20 10 -10 25 -18 33 -18 8 0 15 -6
15 -14 0 -24 20 -29 40 -11 19 17 20 17 26 0 4 -10 1 -20 -7 -25 -18 -12 -8
-20 29 -23 24 -2 28 -5 19 -15 -11 -14 5 -32 30 -32 6 0 13 -4 15 -8 5 -14 58
-24 58 -12 0 6 5 8 11 4 8 -4 8 -9 0 -17 -27 -27 3 -70 51 -71 9 -1 38 -21 65
-46 52 -49 137 -108 196 -136 50 -24 47 -38 -3 -18 -22 9 -47 13 -56 10 -13
-5 -10 -11 14 -36 17 -16 40 -30 53 -30 32 0 89 -65 89 -101 0 -22 5 -29 20
-29 12 0 28 -13 40 -32 18 -29 18 -34 5 -44 -13 -10 -9 -18 27 -53 30 -31 43
-38 49 -29 7 10 12 9 25 -4 14 -14 15 -20 5 -32 -11 -13 -8 -20 18 -42 48 -40
36 -81 -14 -48 -36 24 -31 0 7 -33 18 -16 45 -41 60 -58 22 -23 28 -26 28 -12
0 9 7 17 16 17 14 0 14 -3 4 -15 -17 -20 3 -45 36 -45 28 0 31 15 7 29 -15 9
-14 10 9 11 21 0 29 -6 34 -24 3 -15 11 -23 19 -20 8 3 16 -4 20 -16 5 -15 13
-20 26 -17 15 4 19 0 19 -19 0 -36 29 -77 45 -64 16 13 28 -2 19 -24 -8 -20
13 -46 36 -46 9 0 43 -22 74 -50 31 -27 64 -50 72 -50 8 0 14 -4 14 -10 0 -5
11 -10 24 -10 13 0 27 -7 30 -15 3 -9 11 -15 18 -14 33 4 58 -2 58 -15 0 -32
-50 -30 -110 5 -8 5 -28 16 -44 25 -16 9 -52 34 -79 55 -52 41 -81 49 -95 24
-7 -13 -15 -9 -49 22 -84 78 -116 103 -140 109 -54 14 -49 -40 6 -64 41 -19
69 -37 102 -66 31 -28 31 -46 -2 -46 -25 0 -25 -27 1 -35 24 -8 40 1 40 21 0
22 34 16 60 -11 13 -14 32 -25 42 -25 19 0 24 15 8 25 -5 3 -10 11 -10 17 0 6
10 2 23 -10 13 -12 33 -22 45 -22 28 0 28 -23 0 -44 -23 -17 -22 -17 19 -11
23 3 44 1 47 -4 3 -4 19 -11 36 -15 18 -3 29 -10 25 -16 -3 -5 -1 -10 4 -10 6
0 11 5 11 10 0 19 28 10 33 -10 3 -11 17 -24 32 -30 14 -5 23 -14 20 -20 -4
-6 5 -10 20 -10 15 0 24 4 20 10 -3 6 3 10 15 10 12 0 19 -4 15 -9 -3 -5 11
-15 30 -21 30 -10 34 -15 29 -35 -5 -21 -2 -24 33 -29 21 -4 58 -11 83 -18 25
-6 65 -13 90 -15 103 -9 86 -33 -25 -33 -52 0 -66 -3 -55 -11 11 -8 4 -9 -27
-5 -28 4 -43 2 -43 -5 0 -6 -9 -8 -22 -4 -13 4 -31 9 -40 11 -11 3 -18 0 -18
-8 1 -19 36 -58 52 -58 7 0 35 -12 63 -26 41 -22 54 -25 77 -16 17 6 30 6 34
1 3 -5 14 -9 25 -9 11 0 18 -4 14 -10 -3 -5 8 -16 25 -25 l30 -16 0 700 0 699
-132 66 c-73 36 -189 96 -258 133 -69 36 -166 81 -217 99 -51 18 -147 59 -215
92 -68 32 -161 74 -208 92 -47 18 -89 36 -95 40 -5 4 -55 27 -110 51 -55 23
-116 52 -135 64 -45 28 -164 85 -176 85 -5 0 -34 15 -64 33 -30 18 -95 50
-145 71 -49 21 -104 45 -122 52 -17 8 -34 14 -37 14 -3 0 -49 21 -103 46 -54
25 -114 52 -133 61 -19 9 -42 20 -50 24 -64 35 -259 129 -268 129 -6 0 -77 34
-159 74 -176 89 -271 133 -337 156 -26 10 -57 25 -67 34 -11 9 -21 16 -24 16
-13 0 -243 115 -270 135 -16 12 -38 20 -47 18 -9 -2 -26 5 -37 16 -12 12 -28
21 -36 21 -14 0 -95 38 -105 50 -3 3 -24 14 -48 25 -40 17 -43 21 -40 54 3 32
0 36 -22 40 -24 3 -24 2 -7 -16 21 -24 22 -33 0 -33 -16 0 -103 38 -113 49
-10 12 -138 71 -152 71 -9 0 -21 7 -28 15 -7 8 -19 15 -26 15 -8 0 -22 4 -32
9 -9 5 -34 17 -54 27 -26 13 -34 21 -25 27 7 5 1 6 -15 3 -21 -5 -28 -3 -28 9
0 11 -11 15 -40 15 -37 0 -137 28 -178 49 -36 19 -122 51 -136 51 -9 0 -16 5
-16 10 0 6 -13 10 -30 10 -16 0 -51 10 -77 22 -83 37 -107 46 -153 58 -52 14
-122 37 -165 55 -16 7 -50 18 -75 25 -25 6 -52 16 -60 21 -8 5 -22 12 -30 15
-8 4 -61 29 -118 55 -56 27 -106 49 -110 49 -5 0 -33 12 -63 26 -55 27 -205
92 -339 146 -41 16 -94 39 -117 49 -149 66 -250 109 -258 109 -19 0 -198 92
-239 124 -26 20 -53 36 -59 36 -7 0 -19 -13 -28 -29z m2918 -1447 c-3 -3 -12
-4 -19 -1 -8 3 -5 6 6 6 11 1 17 -2 13 -5z m1067 -635 c-3 -5 -10 -7 -15 -3
-5 3 -7 10 -3 15 3 5 10 7 15 3 5 -3 7 -10 3 -15z m216 -143 c0 -11 -19 -15
-25 -6 -3 5 1 10 9 10 9 0 16 -2 16 -4z m820 -516 c0 -5 -2 -10 -4 -10 -3 0
-8 5 -11 10 -3 6 -1 10 4 10 6 0 11 -4 11 -10z m246 -398 c-9 -8 -46 20 -46
35 0 13 5 12 25 -7 14 -13 23 -25 21 -28z m190 -203 c8 -13 -14 -29 -32 -22
-6 2 -15 0 -19 -6 -9 -15 -25 -14 -25 2 0 25 63 46 76 26z m84 -44 c10 -12 10
-15 -4 -15 -9 0 -16 7 -16 15 0 8 2 15 4 15 2 0 9 -7 16 -15z m58 -59 c3 -12
-1 -17 -10 -14 -7 3 -15 13 -16 22 -3 12 1 17 10 14 7 -3 15 -13 16 -22z m42
-27 c0 -5 -4 -9 -10 -9 -5 0 -10 7 -10 16 0 8 5 12 10 9 6 -3 10 -10 10 -16z
m51 -38 c12 -11 18 -24 15 -30 -9 -14 -38 -1 -32 14 2 7 -1 18 -7 24 -19 19 3
12 24 -8z m77 -81 c12 -16 22 -34 22 -40 0 -19 -20 -10 -31 13 -8 18 -17 23
-35 19 -16 -3 -24 0 -24 10 0 38 39 37 68 -2z m-258 -20 c0 -5 -4 -10 -10 -10
-5 0 -10 5 -10 10 0 6 5 10 10 10 6 0 10 -4 10 -10z m550 -246 c0 -8 -9 -14
-20 -14 -18 0 -19 3 -10 20 12 22 30 18 30 -6z m155 -14 c-3 -5 -12 -7 -20 -3
-21 7 -19 13 6 13 11 0 18 -4 14 -10z m-35 -55 c7 -9 11 -18 8 -21 -8 -8 -58
18 -52 27 8 14 30 10 44 -6z m72 -45 c12 -11 19 -22 16 -25 -2 -3 -15 6 -28
20 -28 30 -18 34 12 5z m-72 6 c0 -3 -4 -8 -10 -11 -5 -3 -10 -1 -10 4 0 6 5
11 10 11 6 0 10 -2 10 -4z m10 -166 c0 -5 -4 -10 -10 -10 -5 0 -10 5 -10 10 0
6 5 10 10 10 6 0 10 -4 10 -10z"/>
<path d="M4205 6181 c-28 -10 -60 -23 -72 -29 -11 -6 -23 -9 -26 -6 -8 8 -87
-16 -87 -26 0 -6 -22 -10 -49 -10 -28 0 -53 -6 -60 -13 -6 -8 -37 -20 -68 -27
-32 -8 -62 -18 -68 -22 -5 -5 -23 -20 -40 -33 -18 -15 -37 -23 -47 -19 -10 3
-30 -3 -46 -13 -15 -10 -40 -25 -57 -33 -16 -8 -36 -20 -42 -27 -12 -10 -35
-8 -103 11 -21 6 -22 5 -7 -4 9 -6 17 -15 17 -20 0 -14 -34 -12 -47 1 -13 13
-53 2 -53 -15 0 -12 -68 -34 -121 -40 -14 -1 -31 -6 -39 -11 -8 -5 -24 -9 -35
-10 -13 0 -21 -8 -23 -22 -3 -19 -10 -23 -37 -23 -18 0 -41 -3 -51 -7 -11 -4
-15 -3 -10 5 3 6 -3 17 -14 25 -23 16 -17 27 17 27 12 0 23 5 23 10 0 15 -32
12 -54 -5 -12 -9 -17 -22 -14 -39 3 -17 0 -27 -11 -32 -14 -5 -13 -7 4 -14 16
-7 12 -9 -17 -9 -21 -1 -38 -6 -38 -12 0 -15 -58 -4 -79 15 -14 13 -26 13 -88
-1 -61 -13 -70 -18 -56 -28 14 -10 9 -13 -28 -18 -33 -4 -48 -2 -62 11 -16 14
-21 14 -40 2 -13 -8 -44 -12 -74 -11 -41 2 -53 -1 -53 -12 0 -19 -31 -31 -41
-16 -4 7 -14 9 -23 6 -9 -4 -26 -1 -36 5 -15 10 -22 10 -32 0 -6 -6 -21 -12
-32 -12 -12 0 -33 -7 -48 -14 -16 -9 -30 -11 -33 -5 -12 18 -39 9 -72 -23 -26
-25 -36 -30 -42 -19 -7 10 -13 11 -30 2 -11 -7 -21 -16 -21 -20 0 -5 -15 -11
-32 -13 -18 -3 -40 -8 -49 -12 -12 -5 -18 -1 -22 13 -3 14 -10 19 -21 15 -12
-5 -14 -10 -6 -19 7 -8 5 -21 -5 -42 -17 -34 -62 -47 -128 -36 -37 6 -42 1
-38 -34 1 -9 -12 -13 -41 -13 -46 0 -78 13 -59 24 5 4 19 1 30 -6 18 -11 24
-9 43 11 l23 24 -24 -6 c-13 -3 -33 -2 -43 4 -24 13 -58 -5 -58 -32 0 -11 -7
-22 -15 -25 -8 -3 -17 -14 -20 -25 -4 -10 -17 -22 -31 -25 -23 -6 -36 -44 -14
-44 6 0 10 -5 10 -11 0 -5 -10 -3 -22 5 -37 26 -76 18 -48 -10 8 -8 6 -15 -4
-23 -12 -10 -17 -8 -26 8 -8 16 -17 20 -35 15 -19 -5 -25 -2 -25 10 0 10 9 16
25 16 31 0 33 17 3 22 -13 2 -22 9 -20 16 3 15 -1 15 -45 -3 l-37 -16 24 -16
23 -16 -27 -14 c-31 -16 -34 -39 -6 -46 24 -6 26 -23 4 -31 -11 -4 -18 1 -21
14 -6 24 -43 27 -43 4 0 -18 -23 -39 -57 -54 -13 -5 -23 -14 -23 -20 0 -5 10
-10 23 -10 12 0 29 -5 37 -10 12 -7 7 -12 -23 -25 -45 -19 -49 -48 -9 -69 15
-8 21 -15 15 -16 -7 0 -13 -5 -13 -11 0 -6 12 -9 27 -7 25 3 28 -1 34 -37 6
-34 3 -44 -18 -67 -15 -15 -30 -25 -36 -21 -5 3 -18 -4 -27 -17 -10 -13 -22
-20 -29 -16 -13 9 -15 48 -2 61 6 6 4 17 -4 29 -17 22 -45 15 -52 -14 -5 -20
-23 -28 -23 -10 0 6 -9 10 -19 10 -21 0 -66 54 -66 80 0 8 -11 17 -25 18 -14
2 -30 8 -37 13 -7 6 -13 6 -17 0 -4 -6 -17 -5 -36 2 -23 9 -35 9 -50 -1 -27
-16 -30 -15 -30 8 0 11 -4 20 -9 20 -23 0 -37 -60 -17 -72 19 -12 -10 -31 -45
-30 -36 1 -49 15 -49 55 l0 29 -31 -31 c-17 -17 -35 -31 -40 -31 -5 0 -9 -9
-9 -20 0 -11 5 -20 10 -20 6 0 10 -7 10 -15 0 -8 -9 -15 -20 -15 -11 0 -29 -6
-40 -12 -15 -10 -22 -10 -32 0 -11 11 -8 17 15 34 25 18 37 49 20 48 -17 -1
-92 -46 -93 -55 -1 -15 -123 -6 -135 10 -9 11 -14 10 -30 -1 -18 -13 -17 -14
8 -14 15 0 27 -4 27 -10 0 -5 21 -11 48 -11 26 -1 38 -3 27 -6 -11 -2 -31 -9
-44 -16 -19 -10 -25 -8 -37 8 -14 18 -14 18 -14 -3 0 -17 6 -22 28 -22 15 0
47 -7 71 -16 25 -8 56 -12 72 -9 26 6 29 4 29 -19 0 -13 5 -28 10 -31 16 -10
12 -52 -6 -59 -25 -10 -26 -8 -22 33 3 37 1 40 -27 45 -16 4 -34 6 -40 5 -5 0
-50 -1 -98 -3 -85 -2 -89 -1 -98 21 -12 32 -19 29 -19 -10 0 -32 2 -33 30 -29
18 3 30 0 30 -7 0 -6 11 -11 25 -11 16 0 25 -6 25 -15 0 -9 -9 -15 -25 -15
-31 0 -33 -18 -2 -29 15 -6 24 -4 30 5 4 8 15 14 22 14 8 0 15 5 15 10 0 17
39 50 60 50 18 0 20 -7 20 -60 0 -47 3 -60 15 -60 8 0 15 -7 15 -15 0 -19 -19
-19 -44 0 -16 12 -17 17 -6 30 18 21 5 45 -25 45 -18 0 -28 -7 -35 -25 -6 -16
-17 -25 -30 -25 -19 0 -20 -4 -15 -37 10 -57 13 -63 33 -63 26 0 42 -20 42
-52 0 -15 6 -31 13 -35 8 -4 16 -19 20 -32 5 -21 3 -23 -23 -19 -22 3 -30 0
-34 -15 -4 -16 -11 -19 -34 -14 -15 3 -39 0 -53 -7 -17 -9 -29 -9 -42 -2 -13
8 -20 8 -25 -1 -4 -6 -29 -14 -55 -18 -37 -6 -50 -13 -57 -30 -5 -12 -23 -27
-42 -34 -18 -7 -40 -16 -48 -20 -13 -7 -15 -141 -18 -1100 l-2 -1093 37 31
c21 17 43 31 50 31 21 0 53 38 53 63 0 14 20 44 50 76 53 57 59 71 35 91 -22
19 -18 37 13 57 15 10 53 43 84 74 42 40 59 65 61 88 2 17 16 45 30 61 34 38
34 46 -2 65 -17 8 -32 19 -36 25 -8 13 42 90 60 90 8 0 15 4 15 8 0 4 22 16
48 25 27 10 64 34 83 53 19 19 57 46 85 61 38 19 57 37 78 74 30 55 53 63 59
22 3 -21 4 -18 6 12 2 47 14 71 31 60 6 -4 19 0 28 8 9 8 26 17 37 19 10 2 26
16 35 31 14 26 14 29 -4 43 -17 12 -18 14 -3 14 12 0 17 8 17 25 0 18 7 28 26
35 22 9 25 14 19 40 -5 23 -3 30 9 31 9 1 21 2 27 3 15 1 27 32 28 69 1 20 6
27 21 27 10 0 34 13 52 28 18 16 41 31 50 35 9 3 29 24 42 46 29 45 52 61 90
61 14 0 33 10 44 25 11 14 25 25 31 25 6 0 11 4 11 8 0 17 -13 21 -33 11 -25
-14 -37 2 -37 49 0 28 3 32 25 32 17 0 25 5 25 18 0 10 5 23 11 29 7 7 9 18 6
26 -5 12 -14 13 -52 5 -55 -12 -74 -1 -54 30 13 21 38 32 76 32 13 0 29 11 38
23 11 17 32 28 73 36 31 7 67 19 79 27 12 8 29 14 38 14 8 0 15 5 15 10 0 13
-57 13 -65 0 -9 -14 -45 -13 -45 2 0 6 -9 22 -21 34 l-21 22 22 12 c12 7 51
13 86 13 35 1 64 5 64 10 0 4 -5 7 -11 7 -8 0 -8 4 1 15 6 8 9 19 5 25 -10 16
25 39 61 40 32 0 74 24 62 35 -4 4 -19 8 -33 8 -49 0 -26 19 44 36 30 7 30 24
0 31 -12 3 -24 11 -27 18 -2 8 13 12 52 12 36 0 55 4 54 11 -4 13 60 38 122
47 50 8 62 32 20 42 l-25 6 22 12 c12 7 31 12 42 12 12 0 21 6 21 14 0 19 16
24 83 22 39 -1 61 -6 68 -16 8 -13 11 -13 20 3 7 12 17 15 35 11 15 -4 37 -1
51 7 21 11 27 11 31 1 2 -8 14 -11 37 -6 18 3 35 1 39 -4 3 -6 14 -8 24 -6 9
3 27 -4 39 -15 25 -23 54 -27 82 -9 26 16 51 3 51 -27 0 -30 17 -25 29 9 7 16
4 24 -13 33 -20 12 -20 12 5 13 15 0 29 -7 32 -15 7 -15 55 -39 104 -49 26 -6
31 -4 36 16 4 12 9 19 12 16 4 -3 2 -22 -3 -42 -6 -21 -7 -36 -1 -38 5 -2 17
-23 25 -48 16 -46 81 -150 95 -150 13 0 69 -54 69 -68 0 -9 13 -12 47 -10 43
3 47 6 55 34 5 20 19 37 42 49 20 11 33 21 31 24 -9 8 17 31 35 31 10 0 23 13
29 29 12 28 55 56 70 46 14 -8 111 93 111 115 0 6 5 10 11 10 6 0 26 12 45 27
25 18 34 32 31 45 -4 14 2 22 19 28 13 5 24 14 24 19 0 5 14 14 30 21 41 17
53 40 33 62 -13 14 -13 20 -3 33 7 8 19 15 26 15 24 0 15 19 -11 26 -29 7 -34
34 -6 34 11 0 23 4 26 10 8 13 -24 72 -36 65 -5 -4 -7 -11 -4 -16 4 -5 1 -17
-5 -26 -10 -16 -11 -16 -6 -1 2 9 -2 22 -10 28 -8 7 -14 16 -14 21 0 7 -43 76
-55 88 -3 2 -11 -2 -19 -8 -17 -14 -36 -7 -36 14 0 8 -6 12 -15 9 -8 -3 -19
-3 -24 0 -14 9 -2 36 14 36 8 0 17 5 20 10 10 16 -66 42 -122 42 -24 0 -31 14
-11 20 9 3 9 12 -2 37 -11 27 -17 31 -38 26 -18 -4 -28 -1 -38 13 -13 19 -51
28 -159 38 -27 2 -62 6 -76 8 -31 6 -120 -18 -99 -27 8 -3 -1 -5 -20 -5 -44 0
-178 -61 -227 -105 -64 -56 -95 -77 -114 -77 -22 0 -109 -57 -116 -77 -4 -10
-15 -13 -33 -9 -17 3 -44 -2 -69 -14 -67 -33 -71 -30 -71 50 0 39 2 70 5 70 3
0 14 -6 25 -12 16 -10 23 -10 36 4 18 18 10 63 -9 51 -26 -14 64 77 105 108
24 17 26 24 17 41 -14 26 -6 32 36 31 22 -1 35 4 35 11 0 13 39 53 46 49 10
-7 23 -1 48 22 15 14 31 25 35 25 7 0 129 76 156 97 20 16 181 91 265 124 47
19 90 39 95 46 6 6 35 21 65 32 142 51 176 64 185 72 5 5 19 9 31 9 13 0 26 4
29 10 3 5 34 18 69 29 35 11 97 37 137 57 95 49 160 73 378 139 29 9 70 27 91
40 21 13 68 34 105 46 49 16 65 25 61 36 -3 8 -6 17 -6 19 0 9 -37 2 -85 -15z
m-1367 -459 c3 -9 -2 -13 -14 -10 -9 1 -19 9 -22 16 -3 9 2 13 14 10 9 -1 19
-9 22 -16z m57 -22 c3 -5 -1 -10 -9 -10 -8 0 -18 5 -21 10 -3 6 1 10 9 10 8 0
18 -4 21 -10z m-1240 -280 c-3 -5 -11 -10 -16 -10 -6 0 -7 5 -4 10 3 6 11 10
16 10 6 0 7 -4 4 -10z m-266 -103 c6 -8 8 -17 5 -20 -9 -8 -44 11 -44 23 0 15
26 12 39 -3z m1026 -37 c-3 -5 -13 -10 -21 -10 -8 0 -14 5 -14 10 0 6 9 10 21
10 11 0 17 -4 14 -10z m-60 -30 c3 -5 1 -10 -4 -10 -6 0 -11 5 -11 10 0 6 2
10 4 10 3 0 8 -4 11 -10z m-1075 -10 c0 -5 -4 -10 -10 -10 -5 0 -10 5 -10 10
0 6 5 10 10 10 6 0 10 -4 10 -10z m50 -78 c0 -15 -2 -15 -10 -2 -13 20 -13 33
0 25 6 -3 10 -14 10 -23z m420 24 c0 -3 -4 -8 -10 -11 -5 -3 -10 -1 -10 4 0 6
5 11 10 11 6 0 10 -2 10 -4z m1485 -6 c3 -5 -1 -10 -9 -10 -8 0 -18 5 -21 10
-3 6 1 10 9 10 8 0 18 -4 21 -10z m-1780 -90 c3 -5 -3 -10 -15 -10 -12 0 -18
5 -15 10 3 6 10 10 15 10 5 0 12 -4 15 -10z m152 -6 c-3 -3 -12 -4 -19 -1 -8
3 -5 6 6 6 11 1 17 -2 13 -5z m590 0 c-3 -3 -12 -4 -19 -1 -8 3 -5 6 6 6 11 1
17 -2 13 -5z m-39 -21 c-4 -22 -38 -30 -38 -10 0 14 13 24 33 26 5 1 7 -7 5
-16z m-823 -13 c11 -17 -5 -32 -21 -19 -7 6 -11 15 -8 20 7 12 21 11 29 -1z
m-402 -7 c-7 -2 -13 -13 -13 -24 0 -16 -3 -17 -25 -7 -14 6 -25 15 -25 19 0 4
-17 10 -37 12 -21 2 -4 4 37 5 41 0 69 -2 63 -5z m462 -3 c3 -5 3 -15 -1 -21
-6 -11 -23 6 -24 24 0 10 18 9 25 -3z m813 -3 c-15 -10 -15 -12 0 -24 16 -12
16 -12 0 -13 -9 0 -20 5 -23 10 -8 13 13 40 29 39 6 0 3 -5 -6 -12z m-868 -47
c0 -5 -5 -10 -11 -10 -5 0 -7 5 -4 10 3 6 8 10 11 10 2 0 4 -4 4 -10z m-690
-40 c0 -5 -4 -10 -9 -10 -6 0 -13 5 -16 10 -3 6 1 10 9 10 9 0 16 -4 16 -10z
m140 -15 c0 -10 -10 -15 -32 -14 -22 1 -26 3 -13 6 11 3 24 9 30 14 13 12 15
11 15 -6z m1370 5 c0 -11 -48 -25 -57 -16 -3 3 5 10 18 15 32 13 39 13 39 1z
m-741 -14 c-2 -2 -18 -8 -34 -11 -21 -5 -27 -4 -20 3 6 5 19 12 30 14 20 4 32
1 24 -6z m-179 -21 c0 -8 -4 -15 -10 -15 -5 0 -10 7 -10 15 0 8 5 15 10 15 6
0 10 -7 10 -15z m-263 -40 c-5 -13 -11 -14 -27 -5 -22 12 -27 36 -7 43 18 7
41 -19 34 -38z m348 25 c-3 -5 -13 -10 -21 -10 -8 0 -12 5 -9 10 3 6 13 10 21
10 8 0 12 -4 9 -10z m-145 -16 c0 -17 -22 -14 -28 4 -2 7 3 12 12 12 9 0 16
-7 16 -16z m-450 -9 c35 -20 90 -19 106 3 12 16 14 16 30 0 17 -16 17 -18 -2
-23 -82 -27 -85 -45 -6 -46 31 -1 47 -4 35 -6 -24 -5 -38 -29 -22 -39 6 -3 22
-3 36 0 18 5 24 3 21 -6 -3 -7 -24 -15 -49 -18 l-44 -5 40 -17 40 -17 -38 0
c-23 -1 -49 -9 -64 -21 -32 -25 -78 -28 -69 -4 4 10 -3 25 -19 40 -29 27 -41
30 -49 12 -3 -7 -3 -3 0 10 5 20 2 22 -38 22 -34 1 -47 6 -61 26 -22 30 -16
64 8 44 9 -7 33 -16 55 -20 33 -6 40 -4 41 9 1 9 3 23 4 31 1 8 3 21 4 28 1
15 10 15 41 -3z m370 -10 c0 -8 -8 -11 -20 -8 -14 4 -20 0 -20 -10 0 -9 -9
-21 -20 -27 -18 -10 -24 -7 -21 12 0 4 -7 5 -17 2 -9 -3 -23 -8 -31 -10 -11
-4 -12 -7 -3 -16 16 -16 15 -28 -3 -28 -8 0 -19 10 -26 21 -14 26 -2 36 53 45
21 4 47 15 59 25 22 19 49 16 49 -6z m147 -1 c-3 -3 -12 -4 -19 -1 -8 3 -5 6
6 6 11 1 17 -2 13 -5z m-37 -13 c0 -5 -13 -11 -30 -13 -20 -3 -30 0 -30 9 0 8
12 13 30 13 17 0 30 -4 30 -9z m-90 -31 c0 -5 -4 -10 -10 -10 -5 0 -10 5 -10
10 0 6 5 10 10 10 6 0 10 -4 10 -10z m-104 -65 c-11 -8 -27 -15 -35 -15 -10 1
-7 6 9 15 33 19 50 18 26 0z m-405 -42 c17 -17 44 -30 66 -33 49 -6 52 -34 5
-38 -23 -2 -32 -8 -29 -17 4 -8 -5 -14 -26 -18 -46 -6 -66 1 -60 24 4 13 0 19
-12 19 -11 0 -15 -6 -11 -18 8 -24 -30 -58 -66 -60 -23 -1 -28 2 -28 21 0 12
10 31 22 41 22 19 22 20 3 28 -12 5 4 6 42 3 55 -5 63 -4 72 14 15 28 14 29
-16 33 -32 4 -44 28 -13 28 12 0 35 -12 51 -27z m-416 -282 c3 -5 1 -13 -5
-16 -15 -9 -43 3 -35 15 8 13 32 13 40 1z"/>
<path d="M720 4840 c-23 -5 -23 -7 -6 -13 11 -4 24 -3 30 3 14 14 5 18 -24 10z"/>
<path d="M5815 5900 c-17 -7 -15 -9 13 -9 17 -1 32 4 32 9 0 12 -17 12 -45 0z"/>
<path d="M3088 5823 c6 -2 18 -2 25 0 6 3 1 5 -13 5 -14 0 -19 -2 -12 -5z"/>
<path d="M5890 5810 c0 -5 5 -10 10 -10 6 0 10 5 10 10 0 6 -4 10 -10 10 -5 0
-10 -4 -10 -10z"/>
<path d="M6174 5749 c-11 -18 13 -32 43 -24 27 6 27 7 9 21 -24 17 -42 18 -52
3z"/>
<path d="M2190 5710 c0 -5 18 -10 41 -10 24 0 38 4 34 10 -3 6 -22 10 -41 10
-19 0 -34 -4 -34 -10z"/>
<path d="M6075 5700 c-4 -6 3 -10 14 -10 25 0 27 6 6 13 -8 4 -17 2 -20 -3z"/>
<path d="M6140 5700 c0 -5 5 -10 10 -10 6 0 10 5 10 10 0 6 -4 10 -10 10 -5 0
-10 -4 -10 -10z"/>
<path d="M6148 5663 c6 -2 18 -2 25 0 6 3 1 5 -13 5 -14 0 -19 -2 -12 -5z"/>
<path d="M6243 5663 c9 -2 23 -2 30 0 6 3 -1 5 -18 5 -16 0 -22 -2 -12 -5z"/>
<path d="M6080 5640 c-13 -8 -12 -10 3 -10 9 0 17 5 17 10 0 12 -1 12 -20 0z"/>
<path d="M6298 5603 c7 -3 16 -2 19 1 4 3 -2 6 -13 5 -11 0 -14 -3 -6 -6z"/>
<path d="M1526 5464 c-7 -18 0 -34 15 -34 5 0 9 11 9 25 0 28 -15 34 -24 9z"/>
<path d="M6924 5386 c0 -33 2 -35 40 -42 55 -9 85 -33 86 -66 0 -18 5 -28 14
-28 20 0 31 20 17 29 -6 4 13 7 44 6 61 -2 75 -9 57 -27 -14 -14 -16 -32 -3
-23 5 3 13 0 16 -6 4 -6 18 -8 30 -5 30 8 55 -2 49 -19 -7 -18 16 -31 26 -15
6 10 11 7 21 -9 8 -11 21 -21 29 -21 13 0 13 -1 0 -10 -12 -8 -11 -10 7 -10
12 0 25 -4 28 -10 10 -15 35 -12 35 5 0 17 9 19 29 6 12 -8 12 -12 2 -25 -7
-8 -10 -20 -6 -26 8 -12 45 -13 64 -1 19 12 74 -8 67 -24 -5 -13 12 -35 26
-35 4 0 8 6 8 14 0 21 45 25 106 8 51 -14 57 -14 65 0 6 11 21 15 54 13 25 -2
45 0 45 4 0 13 -80 33 -93 23 -22 -16 -120 -12 -134 7 -11 15 -12 15 -18 -1
-10 -25 -32 -22 -39 5 -5 20 -10 22 -53 19 -45 -3 -47 -2 -29 13 11 8 35 15
55 15 34 0 37 11 3 16 -46 7 -149 50 -145 62 3 6 -1 12 -8 12 -7 0 -4 6 7 14
24 18 9 38 -23 30 -14 -4 -19 -11 -16 -25 9 -34 -32 -23 -48 14 -11 25 -21 33
-46 35 -28 3 -32 0 -35 -24 -2 -15 -8 -29 -14 -31 -12 -4 -38 52 -35 75 3 19
-47 14 -58 -5 -8 -16 -10 -14 -16 9 -8 30 -28 41 -58 32 -13 -4 -17 -2 -13 5
5 7 -6 17 -28 26 -48 20 -66 19 -66 -5 0 -11 -4 -20 -10 -20 -5 0 -10 11 -10
25 0 14 -6 25 -13 25 -8 0 -13 -13 -13 -34z m171 -56 c-3 -5 -10 -10 -16 -10
-5 0 -9 5 -9 10 0 6 7 10 16 10 8 0 12 -4 9 -10z"/>
<path d="M1460 5400 c20 -13 40 -13 40 0 0 6 -12 10 -27 10 -22 0 -25 -2 -13
-10z"/>
<path d="M5236 5371 c-4 -7 -5 -15 -2 -18 9 -9 19 4 14 18 -4 11 -6 11 -12 0z"/>
<path d="M7190 5369 c0 -5 5 -7 10 -4 6 3 10 8 10 11 0 2 -4 4 -10 4 -5 0 -10
-5 -10 -11z"/>
<path d="M4881 5356 c-6 -7 -8 -16 -4 -19 3 -4 2 -7 -3 -8 -63 -5 -92 -13
-105 -29 -10 -12 -20 -15 -26 -9 -6 6 -22 1 -44 -14 -33 -22 -34 -22 -49 -4
-24 30 -52 12 -49 -32 3 -55 1 -61 -21 -61 -17 0 -20 -7 -20 -40 0 -31 6 -47
26 -65 31 -29 44 -31 44 -10 0 8 -5 15 -11 15 -8 0 -7 5 1 15 10 12 10 19 2
27 -18 18 -14 28 8 28 11 0 20 -7 20 -15 0 -23 34 -85 45 -81 17 5 17 42 0 56
-19 16 -20 40 0 40 9 0 20 -12 25 -26 8 -19 15 -24 30 -19 18 6 19 4 10 -20
-16 -41 -31 -67 -61 -106 -34 -44 -36 -59 -8 -59 11 0 29 -10 39 -22 17 -22
19 -22 38 -5 17 16 20 16 25 2 4 -8 16 -15 27 -15 16 0 20 -6 20 -34 0 -35 13
-55 25 -36 10 17 44 11 54 -9 6 -10 23 -22 38 -26 32 -7 73 -42 73 -61 0 -12
8 -16 63 -28 15 -4 27 -13 27 -21 0 -9 11 -21 25 -27 16 -7 25 -19 25 -35 0
-12 6 -23 13 -24 6 0 -1 -5 -18 -10 -23 -7 -33 -5 -41 6 -6 9 -27 15 -48 15
-53 0 -57 -23 -12 -69 20 -20 36 -42 36 -49 0 -7 11 -17 25 -22 15 -6 35 -29
50 -61 32 -61 100 -134 135 -142 14 -4 33 -21 43 -38 13 -23 23 -30 37 -26 16
4 20 0 20 -19 0 -29 24 -41 46 -23 13 10 17 10 25 -2 5 -8 9 -20 9 -26 0 -7
11 -13 23 -13 32 0 59 -35 81 -103 3 -10 13 -17 23 -15 12 2 19 -5 23 -22 7
-36 42 -90 57 -90 8 0 18 -11 23 -25 14 -36 28 -31 33 13 l4 37 1 -36 c2 -26
11 -44 38 -70 32 -30 36 -31 31 -11 -6 26 14 30 33 7 7 -8 19 -15 26 -15 8 0
14 -4 14 -10 0 -11 52 -61 58 -55 3 3 -1 11 -8 20 -11 13 -9 15 12 15 13 0 41
-9 63 -20 41 -21 85 -27 85 -11 0 5 -9 13 -20 16 -11 3 -20 11 -20 16 0 12 37
11 61 -2 11 -5 30 -9 42 -7 21 3 20 5 -8 20 -35 20 -24 22 45 7 27 -6 50 -15
50 -20 0 -5 10 -9 23 -8 14 0 17 3 7 6 -32 13 -36 26 -15 49 21 23 89 35 113
20 9 -5 15 -1 19 13 3 12 10 21 16 21 6 0 21 12 33 28 19 22 26 25 41 16 14
-9 24 -8 43 5 14 8 28 19 31 24 3 4 12 7 19 5 7 -2 18 13 25 32 9 27 18 35 36
36 26 1 109 51 109 65 0 4 17 11 37 15 21 4 43 13 50 20 14 14 121 13 156 -1
10 -4 37 -1 60 8 23 8 54 18 70 21 15 4 27 13 27 20 0 8 14 17 30 21 17 4 30
9 30 12 0 16 -43 72 -52 67 -5 -3 -18 3 -29 15 -11 12 -31 28 -44 37 -14 9
-25 23 -25 30 0 8 -6 14 -14 14 -8 0 -16 6 -19 13 -4 9 -7 9 -18 0 -10 -10
-17 -5 -35 25 -13 20 -24 44 -24 53 0 21 -39 65 -55 61 -7 -1 -18 5 -25 13 -7
8 -18 15 -25 15 -7 0 -15 9 -18 21 -10 36 -32 16 -30 -27 l2 -39 -53 59 c-30
32 -58 56 -63 53 -6 -4 -21 5 -33 18 -13 14 -32 25 -42 25 -10 0 -18 4 -18 9
0 5 -13 12 -30 16 -16 4 -30 11 -30 16 0 5 -11 7 -25 3 -15 -4 -25 -2 -25 5 0
13 -57 44 -62 33 -2 -4 -25 -6 -51 -4 -44 4 -47 5 -33 21 13 15 11 20 -23 58
-21 22 -54 48 -74 58 -20 9 -34 21 -31 26 3 5 -6 13 -20 19 -14 5 -26 14 -26
20 0 6 -10 8 -24 4 -19 -4 -28 0 -41 20 -10 16 -27 26 -40 26 -13 0 -25 3 -27
8 -1 4 -24 24 -49 45 -31 25 -56 37 -77 37 -43 0 -62 9 -62 30 0 23 -33 53
-46 40 -11 -11 -77 9 -168 49 -32 14 -66 26 -75 26 -9 0 -15 7 -15 18 1 12 -6
17 -22 17 -14 0 -27 7 -30 15 -8 20 -64 46 -85 40 -10 -4 -29 -1 -41 6 -13 7
-35 12 -51 11 -15 -1 -38 5 -52 14 -20 13 -28 14 -39 5 -11 -9 -19 -9 -35 1
-17 10 -25 10 -41 0 -28 -17 -40 -15 -67 10 -23 21 -23 21 -37 2 -12 -15 -17
-17 -27 -6 -7 6 -21 12 -31 12 -11 0 -36 9 -57 20 -32 16 -41 17 -50 6z m-191
-131 c7 -8 8 -15 2 -15 -5 0 -15 7 -22 15 -7 8 -8 15 -2 15 5 0 15 -7 22 -15z
m184 -59 c-10 -8 -21 -12 -24 -9 -3 2 4 11 14 19 11 7 22 12 25 9 2 -3 -4 -12
-15 -19z m250 -5 c7 -11 -14 -20 -31 -13 -7 2 -10 8 -7 13 7 12 31 12 38 0z
m-233 -24 c-1 -12 -15 -9 -19 4 -3 6 1 10 8 8 6 -3 11 -8 11 -12z m-81 -27 c0
-5 -7 -10 -15 -10 -8 0 -15 5 -15 10 0 6 7 10 15 10 8 0 15 -4 15 -10z m128
-21 c-2 -6 -8 -10 -13 -10 -5 0 -11 4 -13 10 -2 6 4 11 13 11 9 0 15 -5 13
-11z m227 -30 c-4 -5 -16 -9 -28 -9 -21 1 -21 1 -3 15 20 15 41 11 31 -6z
m-110 2 c3 -5 1 -12 -5 -16 -5 -3 -10 1 -10 9 0 18 6 21 15 7z m85 -31 c0 -5
-5 -10 -11 -10 -5 0 -7 5 -4 10 3 6 8 10 11 10 2 0 4 -4 4 -10z m77 -32 c-3
-8 -6 -5 -6 6 -1 11 2 17 5 13 3 -3 4 -12 1 -19z m-18 -22 c9 -10 8 -15 -2
-19 -10 -4 -15 -24 -16 -61 -1 -47 2 -56 17 -56 28 0 26 -64 -3 -96 l-25 -26
-10 26 c-5 15 -10 31 -10 36 0 5 -9 14 -20 20 -17 9 -18 14 -9 31 6 12 8 23 5
26 -3 4 -1 12 5 19 7 9 7 18 -2 32 -9 14 -9 24 -1 38 6 10 12 13 12 7 0 -23
18 -14 24 12 7 28 18 32 35 11z m111 -22 c0 -8 -5 -12 -10 -9 -6 4 -8 11 -5
16 9 14 15 11 15 -7z m-492 -6 c-7 -19 -38 -22 -38 -4 0 10 9 16 21 16 12 0
19 -5 17 -12z m492 -64 c0 -8 -5 -12 -10 -9 -6 4 -8 11 -5 16 9 14 15 11 15
-7z m1210 -289 c20 -24 5 -28 -21 -6 -19 16 -20 20 -8 21 9 0 22 -7 29 -15z
m-1330 -54 c0 -5 -13 -11 -30 -13 -16 -3 -30 -1 -30 3 0 7 10 10 53 18 4 0 7
-3 7 -8z m990 -51 c0 -5 -4 -10 -10 -10 -5 0 -10 5 -10 10 0 6 5 10 10 10 6 0
10 -4 10 -10z m-135 -720 c3 -5 1 -10 -4 -10 -6 0 -11 5 -11 10 0 6 2 10 4 10
3 0 8 -4 11 -10z"/>
<path d="M6878 5363 c7 -3 16 -2 19 1 4 3 -2 6 -13 5 -11 0 -14 -3 -6 -6z"/>
<path d="M7140 5270 c0 -5 5 -10 10 -10 6 0 10 5 10 10 0 6 -4 10 -10 10 -5 0
-10 -4 -10 -10z"/>
<path d="M4500 5255 c0 -8 7 -15 16 -15 10 0 14 -6 10 -15 -3 -8 -1 -15 3 -15
5 0 16 -3 25 -6 11 -4 16 0 16 12 0 28 -12 40 -42 48 -21 5 -28 3 -28 -9z"/>
<path d="M1055 5184 c-3 -21 -7 -46 -9 -55 -2 -12 3 -15 20 -11 26 5 31 17 13
28 -6 3 -9 17 -6 30 2 12 1 28 -4 35 -4 8 -10 -2 -14 -27z"/>
<path d="M7156 5206 c10 -8 21 -12 24 -10 5 6 -21 24 -34 24 -6 0 -1 -6 10
-14z"/>
<path d="M7528 5213 c6 -2 18 -2 25 0 6 3 1 5 -13 5 -14 0 -19 -2 -12 -5z"/>
<path d="M1150 5174 c0 -8 5 -12 10 -9 6 3 10 10 10 16 0 5 -4 9 -10 9 -5 0
-10 -7 -10 -16z"/>
<path d="M3663 5167 c5 -15 37 -22 37 -9 0 5 -9 12 -21 15 -13 3 -19 1 -16 -6z"/>
<path d="M7290 5150 c-8 -5 -10 -10 -5 -10 6 0 17 5 25 10 8 5 11 10 5 10 -5
0 -17 -5 -25 -10z"/>
<path d="M7667 5153 c-16 -15 -6 -34 15 -31 29 4 38 38 10 38 -10 0 -22 -3
-25 -7z"/>
<path d="M976 5131 c-3 -5 1 -14 9 -21 13 -10 15 -9 15 9 0 21 -14 28 -24 12z"/>
<path d="M4487 5124 c-11 -11 3 -24 25 -24 17 0 18 2 8 15 -13 16 -23 19 -33
9z"/>
<path d="M3776 5104 c-9 -23 -8 -24 14 -24 11 0 20 -4 20 -10 0 -5 -4 -10 -10
-10 -5 0 -10 -4 -10 -10 0 -5 16 -10 35 -10 24 0 39 -6 47 -20 14 -21 43 -27
53 -10 10 16 -28 60 -57 66 -15 4 -35 15 -44 25 -21 23 -40 24 -48 3z"/>
<path d="M7356 5101 c5 -5 20 -12 34 -16 24 -7 24 -7 5 9 -21 16 -56 23 -39 7z"/>
<path d="M1080 5080 c20 -13 43 -13 35 0 -3 6 -16 10 -28 10 -18 0 -19 -2 -7
-10z"/>
<path d="M7495 5070 c-3 -5 3 -18 15 -30 24 -24 30 -25 30 -5 0 8 5 15 11 15
6 0 4 7 -5 15 -17 17 -42 20 -51 5z"/>
<path d="M7905 5040 c-7 -22 -8 -23 -20 -6 -11 15 -17 16 -37 5 -13 -6 -26
-16 -29 -21 -3 -5 -26 -10 -50 -12 -24 -1 -57 -10 -74 -20 l-30 -17 40 6 c55
9 127 6 141 -6 14 -12 29 5 19 21 -3 6 -1 10 4 10 6 0 11 -6 11 -13 0 -8 10
-13 23 -12 25 2 35 42 19 71 -9 15 -10 15 -17 -6z"/>
<path d="M7950 5009 c0 -22 4 -38 9 -35 5 3 9 22 9 41 0 19 -4 35 -9 35 -5 0
-9 -18 -9 -41z"/>
<path d="M1216 5013 c-9 -9 -7 -43 2 -43 5 0 17 6 27 14 18 13 18 14 -2 24
-11 6 -23 8 -27 5z"/>
<path d="M7586 5011 c-7 -11 11 -26 42 -35 30 -10 28 -4 -7 22 -17 12 -32 18
-35 13z"/>
<path d="M7984 4999 c-3 -6 -1 -16 5 -22 18 -18 13 -26 -21 -29 -46 -4 -49
-28 -4 -28 25 0 36 -4 36 -15 0 -8 9 -15 20 -15 24 0 27 32 5 50 -8 7 -15 25
-15 41 0 29 -13 38 -26 18z"/>
<path d="M8050 4960 c0 -13 7 -20 20 -20 23 0 26 10 8 28 -18 18 -28 15 -28
-8z"/>
<path d="M7880 4936 c0 -9 7 -16 16 -16 17 0 14 22 -4 28 -7 2 -12 -3 -12 -12z"/>
<path d="M8094 4917 c-10 -26 8 -39 37 -28 23 9 23 9 4 17 -11 4 -23 12 -27
18 -4 6 -10 3 -14 -7z"/>
<path d="M8120 4870 c0 -5 17 -10 38 -9 33 1 34 2 12 9 -36 11 -50 11 -50 0z"/>
<path d="M8066 4845 c4 -10 0 -15 -15 -15 -12 0 -21 -6 -21 -15 0 -19 9 -19
34 0 27 20 35 19 29 -5 -3 -11 0 -20 6 -20 6 0 11 9 11 20 0 11 5 20 12 20 20
0 -4 17 -34 24 -22 5 -26 3 -22 -9z"/>
<path d="M8350 4840 c0 -11 4 -20 9 -20 11 0 22 26 14 34 -12 12 -23 5 -23
-14z"/>
<path d="M8457 4821 c3 -12 10 -21 15 -21 13 0 6 32 -9 37 -7 3 -9 -3 -6 -16z"/>
<path d="M196 4817 c-18 -13 -18 -14 -1 -21 22 -8 44 9 29 24 -7 7 -16 6 -28
-3z"/>
<path d="M8530 4791 c0 -12 6 -21 16 -21 9 0 14 7 12 17 -5 25 -28 28 -28 4z"/>
<path d="M8588 4793 c7 -3 16 -2 19 1 4 3 -2 6 -13 5 -11 0 -14 -3 -6 -6z"/>
<path d="M8488 4758 c19 -19 14 -28 -15 -28 -24 0 -25 -2 -13 -14 23 -21 66
-28 79 -12 8 10 5 19 -14 40 -13 14 -30 26 -37 26 -9 0 -9 -3 0 -12z"/>
<path d="M250 4740 c0 -5 -7 -10 -15 -10 -8 0 -15 -9 -15 -20 0 -11 -5 -20
-10 -20 -17 0 -24 31 -9 41 10 6 5 9 -16 9 -20 0 -25 -3 -17 -9 17 -10 -4 -29
-45 -40 -35 -9 -37 -35 -3 -39 14 -2 33 -12 43 -23 22 -23 45 -15 49 18 l3 26
31 -26 c46 -39 64 -36 64 11 0 32 -4 39 -29 50 -19 9 -28 18 -24 28 3 8 2 14
-1 14 -3 0 -6 -4 -6 -10z"/>
<path d="M8385 4740 c-4 -6 5 -10 24 -8 16 1 27 6 25 10 -7 11 -42 10 -49 -2z"/>
<path d="M8420 4680 c0 -5 7 -7 15 -4 8 4 15 8 15 10 0 2 -7 4 -15 4 -8 0 -15
-4 -15 -10z"/>
<path d="M87 4590 c3 -11 7 -20 9 -20 2 0 4 9 4 20 0 11 -4 20 -9 20 -5 0 -7
-9 -4 -20z"/>
<path d="M4980 4599 c0 -5 5 -7 10 -4 6 3 10 8 10 11 0 2 -4 4 -10 4 -5 0 -10
-5 -10 -11z"/>
<path d="M8535 4600 c3 -5 10 -10 16 -10 5 0 9 5 9 10 0 6 -7 10 -16 10 -8 0
-12 -4 -9 -10z"/>
<path d="M8620 4599 c0 -5 5 -7 10 -4 6 3 10 8 10 11 0 2 -4 4 -10 4 -5 0 -10
-5 -10 -11z"/>
<path d="M8875 4581 c-6 -11 9 -23 19 -14 9 9 7 23 -3 23 -6 0 -12 -4 -16 -9z"/>
<path d="M8700 4570 c0 -5 5 -10 10 -10 6 0 10 5 10 10 0 6 -4 10 -10 10 -5 0
-10 -4 -10 -10z"/>
<path d="M9070 4557 c0 -7 9 -18 20 -25 18 -11 20 -10 20 13 0 18 -5 25 -20
25 -11 0 -20 -6 -20 -13z"/>
<path d="M9385 4500 c3 -5 10 -10 16 -10 5 0 9 5 9 10 0 6 -7 10 -16 10 -8 0
-12 -4 -9 -10z"/>
<path d="M7880 4455 c0 -8 7 -15 15 -15 9 0 12 6 9 15 -4 8 -10 15 -15 15 -5
0 -9 -7 -9 -15z"/>
<path d="M9411 4451 c-10 -7 -10 -10 -1 -16 6 -4 16 -3 22 3 13 13 -4 23 -21
13z"/>
<path d="M9340 4429 c0 -5 5 -7 10 -4 6 3 10 8 10 11 0 2 -4 4 -10 4 -5 0 -10
-5 -10 -11z"/>
<path d="M9120 4406 c25 -15 45 -12 35 5 -4 5 -18 9 -33 9 l-27 -1 25 -13z"/>
<path d="M9463 4408 c-18 -5 -33 -13 -33 -18 0 -6 -7 -10 -15 -10 -8 0 -15 -6
-15 -14 0 -8 -6 -17 -12 -19 -9 -4 -9 -6 1 -6 8 -1 25 9 37 20 22 21 24 21 41
4 17 -17 18 -17 25 16 3 19 6 34 5 35 -1 1 -17 -3 -34 -8z"/>
<path d="M9500 4357 c0 -23 10 -25 65 -11 33 8 41 12 24 13 -15 1 -41 4 -58 7
-24 5 -31 3 -31 -9z"/>
<path d="M7111 4324 c0 -11 3 -14 6 -6 3 7 2 16 -1 19 -3 4 -6 -2 -5 -13z"/>
<path d="M9615 4316 l-30 -13 38 0 c23 1 37 6 37 14 0 16 -7 16 -45 -1z"/>
<path d="M9190 4299 c0 -5 5 -7 10 -4 6 3 10 8 10 11 0 2 -4 4 -10 4 -5 0 -10
-5 -10 -11z"/>
<path d="M3934 4269 c-11 -4 -40 -8 -65 -8 -41 -1 -145 -38 -199 -72 -8 -5
-24 -13 -36 -18 -47 -21 -184 -202 -184 -244 0 -8 -11 -30 -24 -50 -19 -27
-23 -46 -21 -83 2 -29 -3 -57 -11 -68 -7 -10 -11 -31 -8 -46 4 -17 0 -31 -10
-39 -19 -16 -21 -62 -4 -79 8 -8 8 -15 -3 -28 -11 -14 -11 -18 4 -29 9 -7 17
-17 17 -24 0 -6 6 -11 13 -11 10 0 13 -11 12 -36 -2 -27 -9 -40 -26 -50 -24
-12 -23 -12 11 -16 29 -2 35 -7 33 -25 -1 -11 4 -27 12 -33 18 -15 20 -34 3
-24 -7 5 -9 1 -6 -13 3 -11 1 -28 -4 -37 -5 -10 -5 -16 0 -16 6 0 13 7 16 16
8 20 26 8 26 -17 0 -16 5 -18 25 -13 38 9 31 -7 -31 -70 -31 -31 -53 -60 -50
-63 3 -3 12 0 21 7 24 20 28 6 4 -15 -17 -16 -22 -17 -29 -5 -7 11 -11 11 -24
1 -9 -8 -16 -17 -16 -22 0 -14 84 -11 99 4 10 10 11 9 6 -5 -4 -10 -11 -18
-16 -18 -4 0 -20 -15 -34 -34 -31 -41 -46 -146 -21 -146 8 0 18 5 21 10 11 17
25 11 25 -11 0 -15 4 -19 16 -15 12 5 15 0 13 -22 -4 -39 21 -100 43 -105 14
-4 17 -11 13 -30 -6 -22 4 -38 25 -43 11 -2 46 -16 62 -24 9 -5 42 -10 72 -11
33 -1 61 -8 67 -15 6 -8 15 -11 20 -8 5 3 9 0 9 -5 0 -17 37 -13 44 4 9 24 33
18 40 -10 6 -24 36 -36 36 -15 0 6 5 10 11 10 6 0 8 -8 4 -19 -3 -10 1 -24 10
-31 12 -10 15 -10 15 4 0 14 3 14 20 4 17 -11 22 -10 31 2 8 12 10 9 6 -12 -5
-35 6 -36 31 -3 27 33 39 31 46 -7 9 -48 20 -61 44 -54 18 6 20 12 15 38 -5
28 -4 31 13 23 20 -8 51 -14 97 -18 26 -3 36 -11 52 -42 3 -6 7 -5 11 3 9 19
21 14 29 -10 7 -19 9 -16 15 22 6 39 7 40 8 13 2 -26 6 -33 22 -33 13 0 22
-10 28 -32 4 -17 13 -33 19 -35 10 -4 29 34 35 71 4 24 28 34 28 12 0 -9 7
-16 15 -16 8 0 15 -8 15 -17 0 -10 7 -27 15 -37 14 -19 15 -18 15 13 0 38 21
38 30 0 8 -31 46 -38 55 -10 3 12 4 25 0 30 -3 5 -1 12 4 16 12 7 31 -26 31
-54 0 -12 5 -21 10 -21 6 0 10 7 10 15 0 8 5 15 10 15 6 0 10 -7 10 -15 0 -9
6 -12 15 -9 9 4 23 -4 35 -17 l19 -24 1 33 c0 17 4 32 9 32 13 0 61 -40 61
-52 0 -5 8 -20 19 -33 12 -17 21 -21 28 -14 15 15 4 90 -15 112 -14 16 -14 19
4 31 16 12 17 17 6 28 -10 10 -14 10 -21 0 -11 -19 -34 -6 -52 30 -20 41 -44
51 -29 12 10 -24 9 -26 -6 -14 -26 22 -74 97 -74 117 0 10 -7 27 -15 37 -8 11
-15 28 -15 38 0 11 -7 18 -20 18 -12 0 -20 7 -20 18 0 9 -16 37 -35 61 -27 34
-35 53 -35 85 0 40 -20 83 -47 99 -7 4 -13 17 -13 27 0 11 -4 20 -10 20 -5 0
-10 9 -10 19 0 14 -5 18 -20 14 -11 -3 -20 -1 -20 3 0 5 9 15 20 22 11 7 20 8
20 3 0 -5 11 -12 25 -15 16 -4 27 -16 31 -34 7 -29 64 -111 77 -112 5 0 6 3 4
8 -2 4 -16 33 -31 65 -15 31 -30 57 -34 57 -4 0 -13 14 -21 30 -7 17 -24 44
-38 60 -13 16 -21 34 -18 40 4 7 -2 14 -14 17 -15 4 -21 13 -21 35 l0 30 53
-52 52 -51 3 28 c2 15 10 33 18 40 13 10 11 15 -15 34 -37 27 -42 54 -8 44 12
-4 31 -15 42 -25 25 -22 85 -36 85 -21 0 7 -10 15 -22 20 -28 11 -82 68 -55
58 9 -4 31 -4 47 -1 29 6 29 7 14 36 l-15 29 34 -6 c34 -7 62 10 35 20 -8 3
-14 25 -15 56 -2 50 -2 51 23 46 24 -4 54 14 54 32 0 5 -16 19 -35 32 -19 13
-35 28 -35 32 0 5 5 5 10 2 11 -7 40 18 40 34 0 6 -4 11 -10 11 -19 0 -10 28
11 33 17 5 20 11 15 31 -5 19 0 32 15 47 l21 21 -27 22 c-22 17 -27 29 -23 49
3 15 0 28 -6 30 -8 3 -8 8 0 18 6 8 11 29 11 47 0 31 -3 33 -28 30 -25 -4 -27
-2 -18 15 8 14 7 23 -5 36 -9 10 -16 23 -16 30 0 6 -11 16 -25 23 -13 6 -36
28 -50 49 -14 22 -33 39 -43 39 -9 1 -33 14 -52 30 -19 17 -40 30 -47 30 -7 0
-18 10 -24 22 -11 20 -13 20 -24 5 -11 -15 -25 -17 -106 -12 -52 3 -116 1
-144 -4 -35 -6 -54 -6 -63 2 -8 6 -29 10 -48 9 -19 -2 -40 1 -47 5 -24 15 -95
29 -113 22z m-344 -1139 c0 -5 -5 -10 -11 -10 -5 0 -7 5 -4 10 3 6 8 10 11 10
2 0 4 -4 4 -10z m817 -72 c-3 -8 -6 -5 -6 6 -1 11 2 17 5 13 3 -3 4 -12 1 -19z
m53 -60 c22 -36 25 -48 12 -48 -7 0 -42 63 -42 75 0 13 12 2 30 -27z m40 -144
c0 -8 4 -14 9 -14 13 0 50 -106 44 -129 -3 -12 -1 -21 5 -21 12 0 45 -61 37
-68 -3 -3 -5 0 -5 6 0 7 -5 12 -11 12 -8 0 -10 -12 -6 -35 7 -42 -9 -38 -18 5
-4 16 -11 32 -16 35 -5 4 -9 12 -9 18 0 7 4 6 10 -3 8 -12 10 -11 10 7 0 12
-5 25 -11 29 -6 3 -9 15 -6 25 3 11 1 17 -4 13 -5 -3 -9 1 -9 9 0 16 -47 116
-65 137 -7 8 -16 26 -20 40 -7 22 -3 21 29 -13 20 -21 36 -45 36 -53z m-70 27
c5 -11 10 -32 10 -46 0 -14 5 -35 10 -46 7 -12 7 -19 1 -19 -6 0 -13 17 -17
38 -4 20 -13 49 -21 65 -15 30 0 38 17 8z m119 -30 c-3 -6 -10 -7 -18 -2 -7 5
-10 14 -6 21 9 14 29 -2 24 -19z m-142 -103 c-3 -8 -6 -5 -6 6 -1 11 2 17 5
13 3 -3 4 -12 1 -19z m60 -50 c-3 -8 -6 -5 -6 6 -1 11 2 17 5 13 3 -3 4 -12 1
-19z m178 -23 c27 -29 75 -118 75 -139 0 -16 -22 -3 -29 17 -5 12 -21 37 -36
54 -25 28 -60 103 -48 103 2 0 19 -16 38 -35z m-5 -97 c0 -19 -2 -20 -10 -8
-13 19 -13 30 0 30 6 0 10 -10 10 -22z m-30 -58 c0 -13 -1 -13 -10 0 -5 8 -10
22 -10 30 0 13 1 13 10 0 5 -8 10 -22 10 -30z m70 -18 c0 -13 -3 -12 -15 4
-19 25 -19 40 0 24 8 -7 15 -20 15 -28z m110 -64 c0 -6 -11 -1 -25 12 -14 13
-25 31 -25 39 1 11 8 8 25 -12 14 -15 25 -33 25 -39z m-224 -5 c-11 -11 -17 4
-9 23 7 18 8 18 11 1 2 -10 1 -21 -2 -24z"/>
<path d="M9450 4254 c0 -8 5 -12 10 -9 6 4 8 11 5 16 -9 14 -15 11 -15 -7z"/>
<path d="M9553 4255 c-3 -9 -4 -17 -2 -19 5 -4 99 -15 99 -11 0 1 -8 12 -19
23 -21 25 -69 29 -78 7z"/>
<path d="M1698 4223 c7 -3 16 -2 19 1 4 3 -2 6 -13 5 -11 0 -14 -3 -6 -6z"/>
<path d="M9444 4219 c-12 -19 12 -32 36 -19 18 10 20 14 9 21 -19 12 -36 11
-45 -2z"/>
<path d="M9710 4220 c-8 -5 -11 -12 -7 -16 4 -4 13 -2 19 4 15 15 7 24 -12 12z"/>
<path d="M1510 4190 c-12 -8 -10 -10 8 -10 13 0 20 4 17 10 -7 12 -6 12 -25 0z"/>
<path d="M9975 4180 c3 -5 8 -10 11 -10 2 0 4 5 4 10 0 6 -5 10 -11 10 -5 0
-7 -4 -4 -10z"/>
<path d="M9414 4169 c-4 -7 -2 -15 4 -17 7 -2 19 -10 27 -19 13 -13 15 -13 15
1 0 10 9 16 23 16 21 1 22 1 3 15 -15 11 -22 12 -27 3 -6 -9 -11 -9 -22 1 -12
9 -17 9 -23 0z"/>
<path d="M10126 4171 c-4 -7 -5 -15 -2 -18 9 -9 19 4 14 18 -4 11 -6 11 -12 0z"/>
<path d="M10000 4158 c0 -27 13 -58 21 -52 16 9 10 64 -6 64 -8 0 -15 -6 -15
-12z"/>
<path d="M10150 4130 c0 -5 5 -10 10 -10 6 0 10 5 10 10 0 6 -4 10 -10 10 -5
0 -10 -4 -10 -10z"/>
<path d="M7400 4120 c0 -5 11 -12 25 -16 14 -3 25 -10 25 -15 0 -5 7 -9 16 -9
13 0 11 5 -7 25 -24 25 -59 34 -59 15z"/>
<path d="M10040 4051 c0 -12 6 -21 16 -21 9 0 14 7 12 17 -5 25 -28 28 -28 4z"/>
<path d="M9740 4042 c0 -15 18 -34 29 -31 7 3 3 11 -9 21 -11 10 -20 14 -20
10z"/>
<path d="M10185 4020 c3 -5 8 -10 11 -10 2 0 4 5 4 10 0 6 -5 10 -11 10 -5 0
-7 -4 -4 -10z"/>
<path d="M10090 3989 c0 -5 5 -7 10 -4 6 3 10 8 10 11 0 2 -4 4 -10 4 -5 0
-10 -5 -10 -11z"/>
<path d="M10390 3985 c0 -16 16 -20 24 -6 3 5 -1 11 -9 15 -9 3 -15 0 -15 -9z"/>
<path d="M10300 3965 c0 -8 4 -15 10 -15 5 0 7 7 4 15 -4 8 -8 15 -10 15 -2 0
-4 -7 -4 -15z"/>
<path d="M9963 3935 c-13 -14 -2 -37 13 -27 6 4 9 14 5 23 -5 13 -8 14 -18 4z"/>
<path d="M10085 3930 c-3 -5 -1 -10 4 -10 6 0 11 5 11 10 0 6 -2 10 -4 10 -3
0 -8 -4 -11 -10z"/>
<path d="M10235 3910 c-4 -6 5 -10 20 -10 15 0 24 4 20 10 -3 6 -12 10 -20 10
-8 0 -17 -4 -20 -10z"/>
<path d="M10096 3894 c-3 -9 -6 -23 -6 -32 0 -21 15 -5 25 26 7 25 -9 31 -19
6z"/>
<path d="M10151 3888 c-1 -15 4 -30 9 -33 12 -7 12 12 0 40 -8 18 -9 17 -9 -7z"/>
<path d="M10540 3850 c0 -19 3 -21 12 -12 9 9 9 15 0 24 -9 9 -12 7 -12 -12z"/>
<path d="M6295 3780 c3 -5 13 -10 21 -10 8 0 12 5 9 10 -3 6 -13 10 -21 10 -8
0 -12 -4 -9 -10z"/>
<path d="M10517 3773 c-4 -3 -7 -11 -7 -17 0 -6 5 -5 12 2 6 6 9 14 7 17 -3 3
-9 2 -12 -2z"/>
<path d="M10705 3770 c-3 -5 3 -10 15 -10 12 0 18 5 15 10 -3 6 -10 10 -15 10
-5 0 -12 -4 -15 -10z"/>
<path d="M10865 3760 c3 -5 8 -10 11 -10 2 0 4 5 4 10 0 6 -5 10 -11 10 -5 0
-7 -4 -4 -10z"/>
<path d="M6328 3733 c6 -2 18 -2 25 0 6 3 1 5 -13 5 -14 0 -19 -2 -12 -5z"/>
<path d="M1090 3560 c0 -5 5 -10 11 -10 5 0 7 5 4 10 -3 6 -8 10 -11 10 -2 0
-4 -4 -4 -10z"/>
<path d="M9310 3492 c0 -5 14 -18 30 -30 36 -27 40 -16 6 16 -25 23 -36 27
-36 14z"/>
<path d="M992 3364 c-18 -7 -31 -18 -27 -24 9 -14 17 -12 44 11 31 25 24 31
-17 13z"/>
<path d="M4625 3210 c3 -5 11 -10 16 -10 6 0 7 5 4 10 -3 6 -11 10 -16 10 -6
0 -7 -4 -4 -10z"/>
<path d="M3430 3196 c0 -8 4 -17 8 -20 13 -8 35 11 28 23 -10 16 -36 14 -36
-3z"/>
<path d="M4590 3132 c0 -17 41 -78 62 -91 15 -9 15 -7 -2 22 -30 49 -60 83
-60 69z"/>
<path d="M9675 3020 c4 -6 11 -8 16 -5 14 9 11 15 -7 15 -8 0 -12 -5 -9 -10z"/>
<path d="M9900 2790 c0 -5 7 -10 16 -10 8 0 12 5 9 10 -3 6 -10 10 -16 10 -5
0 -9 -4 -9 -10z"/>
<path d="M9840 2720 c0 -5 5 -10 10 -10 6 0 10 5 10 10 0 6 -4 10 -10 10 -5 0
-10 -4 -10 -10z"/>
<path d="M4810 2633 c0 -19 11 -43 21 -43 13 0 11 14 -6 36 -8 10 -15 14 -15
7z"/>
<path d="M4877 2489 c4 -13 8 -18 11 -10 2 7 -1 18 -6 23 -8 8 -9 4 -5 -13z"/>
<path d="M10070 2470 c0 -24 4 -30 23 -30 45 0 51 16 13 38 l-36 21 0 -29z"/>
<path d="M4982 2441 c2 -14 9 -26 16 -29 17 -5 15 10 -3 34 -15 18 -15 18 -13
-5z"/>
<path d="M10156 2435 c4 -8 10 -12 15 -9 14 8 10 24 -6 24 -9 0 -12 -6 -9 -15z"/>
<path d="M6040 2435 c1 -17 29 -49 37 -41 4 3 -3 16 -15 29 -12 12 -22 17 -22
12z"/>
<path d="M6131 2383 c-1 -13 3 -23 8 -23 5 0 12 -10 16 -22 4 -15 8 -18 12
-10 4 10 10 7 21 -9 15 -22 16 -21 28 27 7 27 13 50 14 52 0 1 -6 2 -14 2 -9
0 -12 -8 -8 -25 5 -29 -12 -34 -27 -7 -6 9 -11 11 -11 5 0 -21 -20 -15 -30 10
l-9 22 0 -22z"/>
<path d="M5042 2371 c4 -13 18 -16 19 -4 0 4 -5 9 -11 12 -7 2 -11 -2 -8 -8z"/>
<path d="M10296 2362 c-3 -6 -1 -14 5 -17 15 -10 25 3 12 16 -7 7 -13 7 -17 1z"/>
<path d="M0 2080 c0 -11 7 -20 15 -20 8 0 15 9 15 20 0 11 -7 20 -15 20 -8 0
-15 -9 -15 -20z"/>
<path d="M10748 1923 c-32 -8 -19 -21 25 -25 50 -6 54 -4 37 17 -12 15 -29 17
-62 8z"/>
<path d="M0 1859 c0 -45 2 -50 18 -44 9 4 25 10 35 12 26 8 20 39 -12 62 -16
12 -32 21 -35 21 -3 0 -6 -23 -6 -51z"/>
<path d="M10785 1570 c3 -5 10 -10 16 -10 5 0 9 5 9 10 0 6 -7 10 -16 10 -8 0
-12 -4 -9 -10z"/>
</g>
</svg>
